<svg xmlns="http://www.w3.org/2000/svg" viewBox="0 0 1024 1024" width="1024" height="1024">
  
  <defs>
    <clipPath id="tile">
      <rect x="0" y="0" width="1024" height="1024" rx="225" ry="225"></rect>
    </clipPath>
  </defs>
  <g clip-path="url(#tile)">
    <rect x="0" y="0" width="1024" height="1024" fill="#0A1419"></rect>
    
    <radialGradient id="glow" cx="30%" cy="30%" r="60%">
      <stop offset="0" stop-color="#00D9C0" stop-opacity="0.18"></stop>
      <stop offset="1" stop-color="#00D9C0" stop-opacity="0"></stop>
    </radialGradient>
    <rect x="0" y="0" width="1024" height="1024" fill="url(#glow)"></rect>
    
    <g transform="translate(192,192) scale(6.4)">
      <path d="M28 14 L72 14 C82 14 90 22 90 32 L90 60 C90 70 82 78 72 78 L40 78 L26 90 L28 76 C20 73 14 66 14 58 L14 32 C14 22 22 14 28 14 Z" fill="#00D9C0"></path>
      <path d="M34 46 L44 56 L64 34" stroke="#0A1419" stroke-width="8" stroke-linecap="round" stroke-linejoin="round" fill="none"></path>
    </g>
  </g>
</svg>